# xmcd
#
# Track frame offsets:
#	150
#	29502
#	45842
#	59097
#	73915
#	102047
#	113387
#	129817
#	162725
#	190325
#
# Disc length: 2897 seconds
#
# Revision: 1
# Processed by: cddbd v1.5.1PL0 Copyright (c) Steve Scherf et al.
# Submitted via: audiograbber 1.83.01
#
DISCID=850b4f0a
DTITLE=Hip Jazz - Bop! - Not your typical self made man
DYEAR=1900
DGENRE=Jazz
TTITLE0=Howard McGhee - Arbee
TTITLE1=Stephane Grappelli - Fine and Dandy
TTITLE2=Miles Davis - Don't Sing Me The Blues
TTITLE3=Bud Powell - Salt Peanuts
TTITLE4=Dexter Gordon - I Guess I'll Have To Hang My Hat
TTITLE5=Art Tatum - Body and Soul
TTITLE6=Lee Konitz - Mean to Me
TTITLE7=Ben Webster - Perdido
TTITLE8=Grant Green - One For Elena
TTITLE9=Kenny Dorham - Grand Street
EXTD=
EXTT0=
EXTT1=
EXTT2=
EXTT3=
EXTT4=
EXTT5=
EXTT6=
EXTT7=
EXTT8=
EXTT9=
PLAYORDER=
